<svg height="494" width="720" xmlns="http://www.w3.org/2000/svg">
<rect height="494" fill="#555" width="720"></rect>
<text fill="#7f7" font-family="Courier New" font-size="12" xml:space="preserve">
<tspan x="10" y="26">└─┬ crapify@1.2.0 </tspan>
<tspan x="10" y="42">  ├─┬ chalk@0.5.1 </tspan>
<tspan x="10" y="58">  │ ├── ansi-styles@1.1.0 </tspan>
<tspan x="10" y="74">  │ ├── escape-string-regexp@1.0.5 </tspan>
<tspan x="10" y="90">  │ ├─┬ has-ansi@0.1.0 </tspan>
<tspan x="10" y="106">  │ │ └── ansi-regex@0.2.1 </tspan>
<tspan x="10" y="122">  │ ├── strip-ansi@0.3.0 </tspan>
<tspan x="10" y="138">  │ └── supports-color@0.2.0 </tspan>
<tspan x="10" y="154">  ├── lodash@2.4.2 </tspan>
<tspan x="10" y="170">  ├─┬ monkey-proxy@1.2.0 </tspan>
<tspan x="10" y="186">  │ ├── async@0.9.2 </tspan>
<tspan x="10" y="202">  │ ├── basic-auth-parser@0.0.2 </tspan>
<tspan x="10" y="218">  │ ├── commander@2.2.0 </tspan>
<tspan x="10" y="234">  │ ├── debug@0.8.0 </tspan>
<tspan x="10" y="250">  │ └─┬ once@1.4.0 </tspan>
<tspan x="10" y="266">  │   └── wrappy@1.0.2 </tspan>
<tspan x="10" y="282">  ├─┬ throttle@1.0.3 </tspan>
<tspan x="10" y="298">  │ ├─┬ readable-stream@2.2.6 </tspan>
<tspan x="10" y="314">  │ │ ├── buffer-shims@1.0.0 </tspan>
<tspan x="10" y="330">  │ │ ├── core-util-is@1.0.2 </tspan>
<tspan x="10" y="346">  │ │ ├── inherits@2.0.3 </tspan>
<tspan x="10" y="362">  │ │ ├── isarray@1.0.0 </tspan>
<tspan x="10" y="378">  │ │ ├── process-nextick-args@1.0.7 </tspan>
<tspan x="10" y="394">  │ │ ├── string_decoder@0.10.31 </tspan>
<tspan x="10" y="410">  │ │ └── util-deprecate@1.0.2 </tspan>
<tspan x="10" y="426">  │ └─┬ stream-parser@0.3.1 </tspan>
<tspan x="10" y="442">  │   └─┬ debug@2.6.3 </tspan>
<tspan x="10" y="458">  │     └── ms@0.7.2 </tspan>
<tspan x="10" y="474">  └── yargs@1.3.3</tspan>
</text>
</svg>
